<?xml version="1.0" encoding="utf-8"?>
<!-- Generator: Adobe Illustrator 27.5.0, SVG Export Plug-In . SVG Version: 6.00 Build 0)  -->
<svg version="1.1"
	 id="svg23" xmlns:svg="http://www.w3.org/2000/svg" xmlns:inkscape="http://www.inkscape.org/namespaces/inkscape" xmlns:sodipodi="http://sodipodi.sourceforge.net/DTD/sodipodi-0.dtd"
	 xmlns="http://www.w3.org/2000/svg" xmlns:xlink="http://www.w3.org/1999/xlink" x="0px" y="0px" viewBox="0 0 308.8 304.9"
	 style="enable-background:new 0 0 308.8 304.9;" xml:space="preserve">
<style type="text/css">
	.st0{fill:#FF7820;}
	.st1{fill:#207820;}
	.st2{fill:#FFFFFF;}
</style>
<g>
	<g>
		<g>
			<g>
				<path class="st0" d="M47.8,89.7c-1.1,0.1-2.1,0.2-2.1,0.2c0,0.1,0,0.1,0,0.2C46.5,90,47.2,89.9,47.8,89.7z"/>
				<path class="st0" d="M49.6,87.2c-0.2,0-0.4,0-0.7,0.1c0.1,0,0.1,0.1,0.1,0.1C49.3,87.4,49.4,87.3,49.6,87.2z"/>
				<path class="st0" d="M45.7,90.1c0.2,0.7,1.2,1.3,0.1,2.1c-1.2,0.1-3.6,0.2-4.9,0.2c-1.3,0.4,0,0.8,0,1.2c-0.7,0-1.3,0-1.8,0
					c-0.6,0-1,0-1,0.1c-0.2,0.1-0.3,0.2-0.2,0.3c0,0.1,0.2,0.2,0.5,0.3c0.2,0,0.4,0.1,0.6,0.1c0.2,0,0.4,0.1,0.7,0.1
					c0.5,0.1,1.1,0.1,1.7,0.1c1.3-0.6,3.2-1.1,4.9-1.7c0.9-0.3,1.7-0.5,2.5-0.8c0.8-0.3,1.4-0.5,2-0.7c1-0.5,1.5-0.8,0.8-1.1
					C51,90.3,49.2,90.3,45.7,90.1z"/>
				<path class="st0" d="M54.8,87.6c-2,0.3-4,0.5-6.1,0.7c-0.6,0.5-1.4,1-0.8,1.4c1.6-0.3,2.8-0.7,3.9-1C53,88.4,54,88,54.8,87.6z"
					/>
				<path class="st0" d="M233.4,282.6c0.1-0.1,0.2,0,0.5,1C233.7,283.3,233.5,282.9,233.4,282.6c-0.1,0-0.2,0.2-0.5-0.3
					c2,3.5,4.4,7.5,6.9,11.4c0.5,0.4,1,0.8,1.4,1.1c-6.3-9.4-10.9-19.6-15.1-27.9C228.4,273,230.6,277,233.4,282.6z"/>
				<path class="st0" d="M242.7,294.9c0.2,0.3,0.4,0.6,0.7,0.9C242.9,294.8,242.8,294.8,242.7,294.9z"/>
				<path class="st0" d="M240.5,105.1c0.8-6.5,0.5-12.3-0.1-18.1c0.5,12.2-1.4,24.8-3,34.1C238.6,115.9,239.7,110.5,240.5,105.1z"/>
				<path class="st0" d="M234.6,59.8c0.8,3.7,1.5,7.1,2.1,10.3c0.6,3.2,1.2,6.3,1.7,9.4c-0.3-3.1-0.6-6.2-1.2-9.2
					c-0.5-3-1.1-6-2-8.9C235.1,60.9,234.9,60.3,234.6,59.8z"/>
				<path class="st0" d="M237.6,67.9c1.1,7,2.1,13.1,2.8,19.2C240.2,80.2,239.2,73.5,237.6,67.9z"/>
				<path class="st0" d="M229.4,215.1c0.6,4.7,1.2,7.6,1.4,9.2c0.3,0.7,0.8,1.6,1.3,2.8c0-0.3-0.1-0.6-0.1-0.8
					c-0.2-1.2-0.4-2.4-0.6-3.6c-0.2-1.2-0.4-2.4-0.5-3.7c-0.1-1.2-0.2-2.5-0.3-3.7l-0.2-1.9l-0.1-1.9c-0.2-2-0.5-4-0.7-5.7
					c-0.1,1.5-0.2,3.1-0.2,4.6C229.3,212.1,229.3,213.6,229.4,215.1z"/>
				<path class="st0" d="M230.7,224.3c-1.4-3-1.2-1.4-0.8,0.1C230.4,226,231.1,227.5,230.7,224.3z"/>
				<path class="st0" d="M219.3,192.2c0-0.3,0.1-0.5,0.1-0.8c0.1-0.8,0.1-1.5,0.2-2.3C219.5,190.2,219.4,191.2,219.3,192.2z"/>
				<path class="st0" d="M243.3,133.8c-1.3,4.3-2.7,8.7-4.2,12.9c3.3-8.6,5.8-17.7,7.1-25.3c-0.3,1.1-0.8,2.2-1,3.3
					C244.9,127.1,244.3,130.5,243.3,133.8z"/>
				<path class="st0" d="M220.5,227.6c-0.8-6.1-1.5-12.2-1.6-18.2l-0.1-2.3l0-2.3c0-1.5,0-3,0-4.5c0.1-1.5,0.1-3,0.2-4.5l0.1-2.2
					l0.2-2.2c1.7-11.9,4.6-23.3,8.3-34.1c1-2.7,2-5.3,2.9-7.9c0.5-1.3,1-2.5,1.4-3.8c0.5-1.3,0.9-2.5,1.3-3.8c1.7-5.1,3-10.1,4-15
					c1.7-8.7,4-20.6,4.2-32.5c0.2-6-0.1-11.9-1-17.3c-0.8-5.4-2.2-10.3-3.8-14.2c0.3,1.8,0.6,3.4,0.9,5.1c-0.3-1.2-0.7-2.3-1.1-3.4
					c-0.4-1.1-0.8-2.1-1.2-3.1c-1.8-6.5-4.2-12.6-7.5-18c-3.3-5.4-7.3-9.9-12-13c-4.7-3.1-9.9-4.9-15.6-5
					c-5.6-0.2-11.6,1.2-17.6,3.7c-3.5,1.5-5.8,3.4-9.2,5.5c-3.4,2.2-6.6,4.6-9.8,7.2c0,0,0.1,0,0.2,0l-2.4,2.1l-2.7,2.3l-5.6,4.7
					c-3.6,3.2-7.6,6-11.5,9l-2.9,2.2c-1,0.7-2,1.4-3.1,2.1c-2.1,1.4-4.1,2.8-6.2,4.1c-2,1.4-4.2,2.7-6.4,4c-2.2,1.3-4.3,2.6-6.5,3.9
					c-2.1,1.1-4.3,2.2-6.4,3.2c-2.2,1-4.3,2.1-6.5,3l-6.7,2.7c-1.1,0.5-2.2,0.9-3.4,1.3l-3.4,1.2c-3.4,1.2-3.6,0.5-6,1
					c-2.4,0.5-4.6,0.9-6.7,1.3c-2.2,0.4-4.3,0.7-6.4,1c-2.1,0.4-4.3,0.6-6.7,1c-1.2,0.2-2.4,0.3-3.6,0.5c-1.2,0.1-2.5,0.3-3.9,0.4
					c0,0-0.1-0.4-0.1-0.6c-0.8,0.2-1.6,0.3-2.3,0.4c-0.7,0.1-1.4,0.1-2,0.2c4.9-2.7,17.2-5.8,3.7-5l0,0c0.7-0.2,1.4-0.4,2-0.5
					c0.1,0,0.1,0,0.2,0c0,0,0,0,0,0c1.5-0.4,2.7-0.8,3.8-1.3c1-0.4,1.9-0.9,2.8-1.4c-2,0.4-3.9,0.8-5.9,1.2c0.3-0.3,0.5-0.6,0.3-0.9
					c0.2-0.1,0.3-0.2,0.5-0.2c0.9-0.2,1.6-0.3,1.6-0.3c0.3-0.2,0.4-0.4,0.6-0.6c1.2-0.5,2.7-0.9,4.1-1.4c1.4-0.5,2.8-1,4-1.5
					c2.3-0.9,3.9-1.6,3-1.8c-0.6-0.1-1.8,0.2-3.4,0.7c-1.6,0.5-3.5,1.1-5.5,1.6c-0.3,0-0.6,0-0.9,0c5.5-1.3-0.3-1.3,3-2.2
					c2.2-0.5,4.3-1.1,6.4-1.7c2.1-0.6,4.2-1.4,6.4-2c1.1-0.3,2.2-0.6,3.2-1c1-0.4,2.1-0.7,3.1-1.1c2-0.8,4.1-1.4,6.1-2.3
					c2-0.8,3.9-1.7,5.8-2.5c1-0.4,1.9-0.8,2.9-1.3l2.8-1.4c1.9-0.9,3.7-1.9,5.6-2.8c0.9-0.4,1.8-1,2.7-1.5c0.9-0.5,1.8-1.1,2.7-1.6
					c1.8-1.1,3.6-2.2,5.5-3.2c1.8-1.2,3.6-2.4,5.4-3.7c0.6-0.4,1.3-0.9,1.9-1.3c0.9-0.6,1.8-1.2,2.7-1.8c0.9-0.6,1.7-1.3,2.6-1.9
					c1.7-1.3,3.4-2.5,5-3.7l2.5-1.8l1.3-0.9l1.2-1c1.6-1.3,3.3-2.6,4.9-3.9c-0.3,0.4-0.7,0.9-1.1,1.4l4-3.2l2-1.6l2-1.7
					c2.7-2.3,5.5-4.5,8.3-6.7c7-5.3,14.7-9.9,23.6-12.6c4.4-1.4,9.2-2.2,14.1-2.2c2.4-0.1,4.9,0.2,7.4,0.6c2.5,0.5,4.9,1,7.3,1.9
					c2.5,0.9,4.9,2,7.2,3.4c1.2,0.6,2.2,1.4,3.3,2.1c1,0.8,2.1,1.5,3.1,2.4c2,1.6,3.9,3.5,5.6,5.3c1.7,1.9,3.4,3.9,4.8,6
					c3,4.2,5.4,8.6,7.4,13.3c2,4.6,3.7,9.5,4.9,14.4c-2.3-8-5.4-15.9-9.9-23.4c-1.9-3.4-4.2-6.7-6.7-9.6c2.5,3.1,4.8,6.3,6.7,9.6
					c3.7,6.5,6.3,13.7,8.2,20.4c1,3.4,1.7,6.7,2.5,9.8c0.7,3.2,1.4,6.2,2.1,8.9c-0.1,1.2-0.2,1.2-0.2,2.4c0.5,8.3-0.1,16.6,0,23.7
					c0.2,0-0.2,3.6,0.3,2.4c-0.6,7.1-2.3,15.2-3.7,22.2c-0.7,3-1.2,6-1.6,9.1c-1.7,6.1-3.7,12.2-5.9,18.2l-0.4,1.1l-0.4,1l-0.7,2
					c-0.5,1.3-1,2.7-1.4,4c-0.4,1.4-0.8,2.7-1.3,4.1c-0.4,1.4-0.9,2.7-1.2,4.1c-0.3,1.4-0.7,2.8-1,4.2c-0.2,0.7-0.4,1.4-0.5,2.1
					l-0.4,2.1c-0.3,1.4-0.6,2.8-0.9,4.2c-0.2,1.4-0.4,2.9-0.7,4.3l-0.3,2.2l-0.2,2.2c-0.2,1.5-0.3,2.9-0.5,4.4
					c-0.1,2.9-0.4,5.9-0.4,8.9c-0.1,3-0.1,6.2-0.1,9.4c0.1,1.6,0.1,3.2,0.2,4.8c0,1.6,0.2,3.1,0.3,4.6c-1.3-8.8-1.7-18-1.1-27.4
					c1.2-9,3.2-17.5,4.4-24.7c0.2-0.8,0.3-1.7,0.5-2.5l0.6-2.5c-2.9,9.8-4.8,19.8-5.5,29.6c-0.3,2.7-0.7,5.4-0.9,8.1
					c-0.1,1.4-0.2,2.7-0.3,4.1c0,1.4-0.1,2.7-0.1,4.1c0-0.1,0-0.2,0-0.3c-0.1-2.1-0.2-4.3-0.2-6.4c0-1.1,0-2.1,0-3.2
					c0-1.1,0.1-2.2,0.1-3.2c0.9-8.1,2.4-15.8,3.5-22.5c0.1-0.8,0.2-1.7,0.4-2.5c0.3-1.7,0.6-3.4,1-5c-0.8,3.1-1.6,6.1-2.2,9.2
					c-0.3,1.5-0.7,3.1-0.9,4.6c-0.2,1.5-0.5,3.1-0.7,4.6c-0.2,1-0.3,1.9-0.4,2.9l-0.3,2.9c-0.2,1.9-0.3,3.8-0.4,5.7
					c-0.3,2.4-0.5,4.8-0.7,7.2c0-0.3-0.1-0.5-0.1-0.8c0-1.1-0.6-3.1-1.1-4.5c-0.5-1.4-1.2-2.2-1.6-0.6c-0.2,2.1-0.2,4.3-0.4,6.5
					c-0.1,2.2,0,4.5,0,6.8c0.1,2.3,0.2,4.5,0.4,6.7c0.2,2.2,0.4,4.3,0.6,6.2c0.3,2,0.5,3.8,0.8,5.4c0.3,1.6,0.5,3.1,0.8,4.3
					c0.2,1.2,0.4,2.1,0.6,2.8c0.1,0.7,0.2,1,0.2,1c-0.1,0.3-0.7-1.2-1.3-3.6c-0.3-1.2-0.6-2.7-1-4.2c-0.3-1.6-0.6-3.3-0.9-5
					c-1.1-6.8-1.4-13.7-1.5-13.2c0,1.6-0.1,3.2-0.1,4.8c-0.2-1.5-0.4-3-0.6-4.4c-0.2-3.3,0.1-7.7-0.1-9.9
					c-0.7-7.8,0.8-16.5,2.1-25.3c0.4-2.8,0.7-5.8,1.4-9c0.3-1.6,0.5-3.2,0.9-4.9c0.4-1.6,0.7-3.3,1.1-4.9c-0.4-0.1,1-3.3,0.2-2.3
					c2.4-5.9,5.3-12.7,5.2-15.6l0.1-0.4c0.2-0.4,0.3-1,0.5-1.7c1.9-4.9,3.1-9.2,3.9-13.5c0.9-4.3,1.4-8.4,2-13.1
					c0.5-3.2,1-6.5,1.5-9.8c-0.1,1.1-0.4,2.5-0.6,3.8c-0.2,1.4-0.5,2.7-0.6,3.8c-0.1,0.7-0.2,1.5-0.3,2.2
					c-1.4,8.3-3.1,16.2-5.4,23.9c-0.1,0.7-0.3,1.7-0.5,2.7c-0.2,0.5-0.4,1.1-0.6,1.6c0,0.2,0,0.3,0,0.5c-2.3,7.4-5.8,15.6-7.3,22.1
					c-0.5,1.5-0.8,3-1.2,4.6c-0.4,1.5-0.8,3.1-1.2,4.6c-0.7,3.1-1.6,6.2-2.1,9.4c-1.4,6.3-2.2,12.8-2.8,19.2
					c0.2-6.3,0.6-12.6,1.5-18.8c-1.2,7.7-1.7,15-1.7,22c-0.1,1.1-0.1,2.2-0.1,3.2l0,3.4l0,1.7l0,1.7c0-2.1,0.2-4.2,0.2-6.3
					c0.1,4.2,0.4,8.3,1,12.4c1.1,11.2,3.4,22.4,6.8,33.2c3.4,10.9,7.8,21.4,13.1,31.3c-0.4-0.3-0.9-0.6-1.4-1
					c-2.7-4.8-5-9.7-7.1-14.5c-2.1-4.8-4-9.4-5.8-13.5c1.9,6.1,3.7,10.1,6.1,15.7c-0.1,0-0.2,0.2-0.5-0.3c1.7,3.5,3.8,7.6,6,11.5
					c-1.1-1-2.3-2.2-3.4-3.4c-1.4-1.9-2.8-5-4.3-8c-3-6.7-5.4-13.5-7.3-20.4c-1.9-6.9-3.4-13.9-4.5-21.1c-0.8-6.5-1.1-13-1-19.4
					c0-6.5,0.6-12.9,1.4-19.2c-0.2,1.6-0.2,3.1-0.3,4.7c-0.1,1.6-0.2,3.1-0.2,4.6c0,3-0.1,6,0.1,9C219,216.4,219.6,222,220.5,227.6z
					 M80.3,83c1.1-0.4,2.3-0.9,3.4-1.3c-0.2,0-0.4,0-0.6,0C82.1,82,81.1,82.5,80.3,83z M105.7,73.4c-0.9,0.4-1.9,0.8-2.8,1.3
					c-1,0.4-2,0.8-3.1,1.3c-2.1,0.9-4.3,1.8-6.5,2.8c-4.6,1.7-9.3,3.8-14.2,5.3c0,0.1-0.1,0.1,0,0.2c1-0.3,2.1-0.6,3.2-0.9
					c0.5-0.2,1.1-0.3,1.6-0.5c0.5-0.2,1.1-0.4,1.6-0.6c2.2-0.8,4.5-1.7,6.7-2.6c2.3-0.9,4.5-2,6.8-3c1.1-0.5,2.3-1,3.4-1.5
					C103.5,74.5,104.6,73.9,105.7,73.4z M135.5,61.2c-0.1,0-0.1,0-0.2,0.1c0,0,0,0,0.1,0.1C135.4,61.3,135.5,61.2,135.5,61.2z
					 M238.1,49.6c-2-3.9-4.3-8.1-7.3-12.2c-2.9-4-6.5-7.9-10.6-10.8c-2.5-1.8-5.4-2.7-9-4.2c-4.7-1.5-7.6-1.5-11.5-1.4
					c1,0.1,1.9,0.4,2.8,0.6c-3.3-0.4-6,0-8.6,0.5c-2.6,0.6-5.2,1.3-8.5,2.2c0.1,0.2-0.8,0.8-1.7,1.2c-4.6,1.9-9.3,4-12.6,6.6
					c-4.3,2.9-8.4,6.2-11.4,9.2c-0.4,0.3-1,1-1.7,1.8c-0.7,0.8-1.5,1.7-2.3,2.5c-2.2,1.9-4.4,3.7-6.5,5.6c0.1,0,0.3-0.1,0.4-0.1
					c1.8-1.5,3.6-3,5.4-4.6c1.3-1.2,2.7-2.4,4-3.7c1.2-1.2,2.5-2.3,3.8-3.5c2.5-2.3,5.2-4.4,7.7-6.1c6.4-4.4,12.9-7.8,19.5-9.6
					c6.6-1.8,13.4-2.2,19.7-0.3c2.7,0.7,5.5,1.7,8,3.2c3.9,2.1,7.6,5.6,10.6,9.3c3.1,3.7,5.4,7.5,7.3,10.1
					C236.5,46.8,237.3,48.7,238.1,49.6z M249.9,59.3c-0.9-3-2-6.1-3.1-9.1c-1.2-3-2.5-6.1-4-9c-3-5.8-6.7-11.3-10.8-15.8
					c-1.7-1.8-4.3-4.3-7.7-6.5c-3.3-2.2-7.3-4-11.1-5c-3.7-1-7.1-1.2-9.2-1c-2.1,0.3-2.9,0.7-1.8,1.4c0.7-0.2,1.7-0.4,2.8-0.4
					c0.6,0,1.2,0,1.8,0c0.7,0.1,1.3,0.1,2.1,0.2c2.9,0.4,6.4,1.4,10,3.1c3.6,1.7,7.1,4.3,10.3,7.3c3.2,3,6,6.5,8.3,10.1
					c4.6,7.2,7.3,14.6,9.1,19.5C248.2,59.1,249.2,61.6,249.9,59.3z M240.5,155.8l0.5-1.6l0.6-1.7c0.4-1.2,0.8-2.3,1.3-3.5
					c0.8-2.4,1.7-4.8,2.7-7.5l-1.2,3.7l-1.3,3.6c-0.4,1.2-0.9,2.4-1.3,3.6l-0.7,1.8L240.5,155.8z M246.8,106.5
					c-0.4,7.4-1.7,15-3.5,22.5c-1.8,7.5-4.3,14.9-6.9,21.9c-1,2.7-2,5.3-3,7.9c-1,2.7-1.9,5.4-2.9,8c-0.8,2.7-1.6,5.4-2.2,8
					c-0.3,1.3-0.5,2.6-0.7,3.9c-0.1,0.6-0.2,1.3-0.3,1.9c-0.1,0.6-0.1,1.3-0.1,1.9l0.6,0.1l0-1.1c0.5-1.9,1-3.5,1.5-5.1
					c0.3-0.8,0.5-1.6,0.7-2.3c0.3-0.8,0.6-1.5,0.8-2.3c0,0.2-0.1,0.4-0.1,0.6c0.1-0.3,0.2-0.6,0.2-0.9c0.7-2,1.3-4.2,2.1-6.6
					c0.3-1.1,0.6-2.3,0.9-3.5c0.5-1.6,1.1-3.2,1.8-4.8l1.9-4.9c1.3-3.4,2.6-6.8,3.7-10.2c2.2-6.8,3.9-13.6,4.8-20.1
					c1.3-8,1.5-14.9,1.7-22.9c-0.1,1.1-0.3,2.5-0.5,3.9C247.1,103.9,246.9,105.3,246.8,106.5z"/>
				<path class="st0" d="M220.3,206.8c0.1,2.4,0.1,4.9,0.2,7.3c0.1,1.2,0.2,2.4,0.3,3.7c0.1,1.2,0.2,2.4,0.3,3.7
					c0.5,3.8,1.1,7.5,1.9,11.2c1.8,8.8,4,18.2,7.3,27.5c3.2,9.3,7.3,18.4,12.2,26.6c0.8,0.2,1.3,0,1.5-0.9
					c-2.4-4.5-4.6-9.1-6.7-13.8c-2-4.7-3.9-9.4-5.5-14.3c-3.3-9.7-5.6-19.7-6.5-29.9c0-0.2-0.1-0.3-0.1-0.5
					c-0.1-0.5-0.3-1.1-0.4-1.7c-0.1-0.6-0.2-1.2-0.3-1.8c-0.2-1.2-0.4-2.6-0.5-3.9c-0.1-1.4-0.2-2.8-0.3-4.2c-0.1-1.5-0.2-3-0.2-4.5
					c0-1.5-0.1-3,0-4.6c0-1.5,0.1-3.1,0.1-4.6c0.1-3,0.3-6,0.4-8.8c0.3-11.1,2.7-22.1,5.6-33c-2.9,7.6-4.8,15.3-6.3,23.1
					C221.7,191,220.7,198.8,220.3,206.8z"/>
				<path class="st0" d="M238.4,79.6c0.3,4.1,0.5,8.2,0.4,12.4c-0.2,11.7-1.5,22.2-3.7,32.9c1-3.9,1.9-7.7,2.7-11.7
					c0.8-3.9,1.4-7.9,1.9-11.9c0.4-4,0.4-7.7,0.1-11.3C239.4,86.5,239,83,238.4,79.6z"/>
				<path class="st0" d="M233,133.5c0.4-1.4,0.7-2.9,1.1-4.3c0.4-1.4,0.7-2.9,1-4.3c-1.5,5.7-3.3,11.3-5.4,16.9
					c-0.5,1.4-1,2.8-1.6,4.1l-0.8,2.1l-0.9,2.2c-1.1,3-2.3,5.9-3.3,8.9c-6.3,19.8-8.8,40.8-6.7,61.3c0.3,2.3,0.5,4.6,0.8,6.9
					c-1.8-19,0.2-38.2,4.9-55.8c0.6-2.2,1.2-4.4,1.9-6.6c0.7-2.1,1.4-4.3,2.1-6.4l0.5-1.6l0.6-1.6c0.4-1,0.8-2.1,1.2-3.1
					c0.8-2,1.5-4,2.3-6c2.9-7.8,5.1-15.6,6.5-23.2c0.1-0.6,0.2-1.2,0.3-1.8c-1.7,7.1-3.9,14-6.4,20.8c-2.5,6.6-5.6,13.9-7.8,21.2
					c0.8-2.6,1.6-5.1,2.4-7.7l2.7-7.6C230.1,143.2,231.6,138.4,233,133.5z"/>
				<path class="st0" d="M220.3,202.1c-0.1,1.1-0.1,2.2-0.2,3.2c0,0.6,0,1.3,0,1.9c0,0.6,0,1.2,0.1,1.9c0-0.8,0-1.5,0.1-2.3
					C220.3,205.2,220.3,203.6,220.3,202.1z"/>
				<path class="st0" d="M230.9,171.9c0-0.1,0.1-0.3,0.1-0.4c0.5-1.7,0.9-3.4,1.4-5c0.5-1.7,1.1-3.3,1.6-5c0.2-0.6,0.3-1.2,0.5-1.8
					c0.2-0.6,0.4-1.2,0.6-1.8c0.4-1.2,0.8-2.4,1.2-3.6c0.2-0.6,0.4-1.2,0.6-1.8c0.2-0.6,0.5-1.3,0.7-1.9c0.5-1.3,1-2.6,1.4-3.9
					c-0.4,1.2-0.9,2.3-1.3,3.5c-0.5,1.2-0.9,2.3-1.3,3.4c-0.8,2.2-1.6,4.3-2.4,6.4c-0.7,2.1-1.3,4.2-1.9,6.2
					C231.6,168.2,231.2,170.1,230.9,171.9z"/>
				<path class="st0" d="M246.1,144.7c0.4-1.1,1.2-3.3,1.6-4.5c0.1-0.7,0.2-1.4,0.4-2.2c-0.4,1-0.7,2.1-1.1,3.2L246.1,144.7z"/>
				<path class="st0" d="M253.8,75.4c1.2,10.5,1.1,20.8,0.2,30.8c-1,10-2.9,19.7-5.4,29.1c-0.2,0.9-0.3,1.9-0.5,2.8
					c4.3-12.4,6.9-25.5,7-37.6c0-2.4-0.3-6-0.2-8.4c0.3-11.3-1.1-22.1-4-32.5c1.3,5,2.2,10.1,2.9,15.4
					C253.8,75.1,253.8,75.2,253.8,75.4z"/>
			</g>
		</g>
	</g>
</g>
<g>
	<g>
		<g>
			<g>
				<path class="st1" d="M40.1,273.8c0.6,1,1.1,1.9,1.1,1.9c0.1,0,0.1-0.1,0.1-0.1C40.9,274.9,40.5,274.3,40.1,273.8z"/>
				<path class="st1" d="M37,273.1c0.1,0.2,0.2,0.4,0.3,0.6c0-0.1,0-0.1,0.1-0.2C37.3,273.3,37.2,273.2,37,273.1z"/>
				<path class="st1" d="M41.4,275.6c0.5-0.5,0.7-1.6,1.9-1c0.6,1,1.8,3.1,2.4,4.1c0.9,0.8,0.7-0.4,1-0.6c0.6,1,1.2,1.9,1.3,1.8
					c0.8,0.3,0.5-0.7-0.6-2.7c-2.2-1.5-5.1-5.1-6.7-6.7c-0.8-0.8-1.3-1.1-1.3-0.4C39.4,270.6,40,272.3,41.4,275.6z"/>
				<path class="st1" d="M35.4,267.8c1,1.9,1.9,3.8,3,5.7c0.7,0.4,1.5,0.9,1.6,0.2C38.1,270.9,36.9,269.3,35.4,267.8z"/>
				<path class="st1" d="M170.9,82.9c-0.1-0.1,0-0.2,0.9-0.8C171.5,82.4,171.2,82.7,170.9,82.9c0.1,0.1,0.2,0.2-0.1,0.6
					c1.4-1.5,3.2-2.9,5-4.5c0.9-0.7,1.8-1.6,2.8-2.3c1-0.7,2-1.4,3-2.1c0.4-0.5,0.8-1,1.1-1.5c-2.4,1.7-5,3.3-7.2,5.2
					c-1.1,0.9-2.3,1.8-3.4,2.7c-1.1,0.9-2.1,2-3.1,2.9c-0.5,0.5-1,1-1.5,1.5c-0.5,0.5-1,1-1.4,1.5c-0.9,1-1.8,2.1-2.6,3.1
					c-0.4,0.5-0.8,1-1.2,1.5c-0.4,0.5-0.7,1.1-1.1,1.6c-0.7,1-1.4,2.1-2,3.1c1-1.3,2-2.5,2.9-3.7c0.4-0.6,0.9-1.1,1.4-1.7
					c0.5-0.5,0.9-1.1,1.4-1.6c0.5-0.5,0.9-1.1,1.4-1.6l0.7-0.8c0.2-0.3,0.5-0.5,0.8-0.8C168.6,85.1,169.7,84.1,170.9,82.9z"/>
				<path class="st1" d="M182.7,71.7c0.3-0.2,0.7-0.5,1-0.7C182.7,71.5,182.7,71.6,182.7,71.7z"/>
				<path class="st1" d="M169.4,270.6c-1.9,3.9-4.2,7.4-7,10.5c-2.8,3-5.9,5.5-9.3,7.6c3.7-2,7.2-4.6,10.2-7.7c3-3.1,5.3-6.6,7-10.3
					c1.7-3.6,2.7-7.3,3.3-10.7c0.2-1.7,0.5-3.4,0.6-5c0-0.8,0.1-1.6,0.1-2.4c0-0.8,0-1.5,0-2.3c-0.1,3.4-0.5,6.8-1.2,10.2
					C172.2,263.9,171,267.3,169.4,270.6z"/>
				<path class="st1" d="M115.9,295c5.2,1.1,10.1,1.4,14.7,1.2c4.6-0.2,9-1.1,13.2-2.4c-8.6,2.2-17.2,2.4-25.5,1.3
					C117.5,295.1,116.6,295.1,115.9,295z"/>
				<path class="st1" d="M127.6,295c9.6,0.2,18.1-2.1,25.4-6.4c-4.2,2.3-8.6,3.7-13,4.7C135.8,294.3,131.6,294.8,127.6,295z"/>
				<path class="st1" d="M133.3,148.9c-0.6-3-0.9-5.5-1.1-7.4c-0.3-2-0.3-3.4-0.3-4.5c-0.3-1-0.6-2.2-0.9-4c0,0.4,0,0.8,0,1.1
					c0.1,1.6,0.1,3.3,0.2,4.9c0.1,1.6,0.3,3.2,0.4,4.9c0.1,1.6,0.4,3.2,0.6,4.8c0.2,1.6,0.4,3.2,0.8,4.8c0.6,2.6,1.2,5,2,6.9
					c-0.4-1.9-0.6-3.8-0.9-5.7l-0.4-2.9C133.4,150.8,133.4,149.8,133.3,148.9z"/>
				<path class="st1" d="M131.8,136.9c1.1,4.1,1.1,2,0.8-0.1C132.3,134.8,131.8,132.7,131.8,136.9z"/>
				<path class="st1" d="M149.4,172.2c0.1,0.3,0.1,0.5,0.2,0.8c0.3,0.8,0.6,1.6,0.8,2.3C150.1,174.2,149.7,173.2,149.4,172.2z"/>
				<path class="st1" d="M164.6,238.9l-0.5-3.5l-0.7-3.4c-0.3-1.1-0.6-2.2-0.9-3.4c-0.3-1.1-0.7-2.2-1.1-3.3
					c0.3,1.1,0.7,2.3,1.1,3.4c0.3,1.1,0.6,2.3,0.9,3.4c0.2,1.1,0.5,2.3,0.7,3.4c0.2,1.2,0.4,2.3,0.6,3.4c0.7,4.5,1,8.9,1,12.8
					c0.1-1.2,0.3-2.3,0.4-3.5c-0.2-1.2-0.4-2.7-0.6-4.3C165,242.5,164.8,240.7,164.6,238.9z"/>
				<path class="st1" d="M142.4,134.4c-0.1,6.8,0.8,13.4,2.1,19.8c1.3,6.4,3.1,12.7,5.2,18.7c3.6,12.4,8.3,24.3,12.9,35.8
					c2.3,5.8,4.5,11.5,6.4,17.3c0.5,1.5,0.9,2.9,1.3,4.4c0.4,1.5,0.8,3,1.1,4.5c0.3,1.5,0.6,3,0.8,4.4c0.2,1.5,0.4,3,0.6,4.4
					c0.6,5.2,0.7,11.6-0.9,18.5c-0.8,3.4-2.1,7-4,10.4c-1.9,3.4-4.4,6.6-7.4,9.3c-3,2.7-6.4,4.9-9.9,6.6c-3.5,1.7-7.1,2.9-10.6,3.7
					c-3.5,0.9-6.9,1.4-10.2,1.7c-3.2,0.3-6.3,0.5-9.1,0.5c1.2,0.2,2.4,0.3,3.5,0.4c1.1,0.1,2.3,0.2,3.4,0.2
					c-3.3,0.2-6.4,0.2-9.4,0.1c-1.2-0.1-2.3-0.3-3.5-0.5c-1.1-0.2-2.3-0.4-3.4-0.7c-1.1-0.2-2.3-0.6-3.4-0.9
					c-0.6-0.2-1.2-0.4-1.8-0.6c-0.6-0.2-1.2-0.4-1.9-0.7c-2.5-0.9-5.1-2.3-7.6-4.1c-2.5-1.8-4.8-4.3-6.6-7c-1.8-2.7-3-5.7-3.6-8.5
					c-0.7-2.8-1.1-5.5-1.2-8c-0.3-5,0.1-9.5,0.6-13.8c1-8.6,2.3-16.6,3.4-24.6c0.5-4,1-7.9,1.4-11.9c0.2-2,0.4-4,0.5-5.9
					c0.1-1.1,0.1-1.8,0.1-2.6l0-1.2l-0.1-1.1c-0.1-1.7-0.5-3-1-3.9c-0.5-0.9-1-1.5-1.4-2c-0.5-0.5-1-0.9-2-1.3
					c-1-0.4-2.3-0.6-3.9-0.7c0,0,0,0.1,0.1,0.1c-3.3-0.2-7.4,0.4-11.5,1.6c-4.1,1.1-8.3,2.8-12.4,4.8c-4.1,2-8.1,4.3-11.8,6.9
					c-3.8,2.6-7.3,5.5-10.2,8.5l-1,1l-0.5,0.5c-0.1,0.1-0.1,0.2-0.2,0.2l-0.1,0.2c-0.2,0.2-0.3,0.4-0.5,0.6
					c-0.1,0.2-0.3,0.5-0.4,0.7l-0.2,0.3c-0.1,0.1-0.1,0.3-0.2,0.4c-0.1,0.3-0.2,0.5-0.4,0.8c-0.1,0.3-0.2,0.6-0.3,0.9
					c-0.1,0.2-0.1,0.3-0.2,0.4l-0.1,0.5l-0.2,1l-0.2,1.1c-0.1,0.4-0.1,0.8-0.1,1.2l-0.1,1.2c0,1.8,0.1,3.6,0.4,5.6
					c0.2,1.4,0.2,2.3,0.1,2.9c-0.1,0.7-0.3,1.2-0.1,2.3c0.5,4.2,1.3,8.1,2.4,12.1c1.1,4,2.6,8.1,4.8,13c0,0-0.4,0.2-0.5,0.3
					c0.8,1.4,1.4,2.7,1.9,3.8c-2.2-1.7-4.8-5.5-6.3-7.2c-0.7-0.9-1.2-1.2-1.3-0.5c0,0.7,0.4,2.5,1.6,5.8l0,0
					c-0.4-0.7-0.8-1.3-1.1-1.8c0-0.1-0.1-0.1-0.1-0.2c0,0,0,0,0,0c-1.7-2.8-2.9-4.5-4.2-6.1c0.8,2,1.7,3.9,2.6,5.9
					c-0.4-0.2-0.8-0.4-0.9-0.1c-0.1-0.1-0.2-0.3-0.4-0.4c-0.4-0.9-0.7-1.6-0.7-1.6c-0.3-0.2-0.5-0.4-0.7-0.5
					c-1.5-2.4-3.2-5.7-4.4-8.1c-1.2-2.5-2.1-4.1-2.2-3.2c0,1.4,1.7,5.3,3.8,9.5c0,0.3,0.1,0.6,0.2,1c-2.6-5.7-1.3,0.5-2.9-2.9
					c-1.9-4.7-3.7-9.4-4.9-14.4c-1.2-5.1-2-10.1-2-15.1c0-5,1-10.2,3.3-14.8c0.3-0.6,0.7-1.1,1-1.7c0.3-0.6,0.7-1.1,1.1-1.6l1.2-1.5
					c0.4-0.5,0.8-0.9,1.2-1.4c1.7-1.8,3.5-3.4,5.3-5c3.7-3.2,7.7-6.1,12-8.8c0.8-0.5,1.5-0.9,2.3-1.4c4.3-2.5,8.6-4.7,13.1-6.5
					c4.5-1.8,9.1-3.2,14.1-4.1c-0.6,0.2-1.2,0.5-1.9,0.8c3.9-0.8,7.9-1.3,12-1.2c4.1,0.1,8.5,0.7,12.5,2.9c2.5,1.3,4.7,3.2,6.5,5.5
					c1.7,2.3,2.9,4.9,3.6,7.5c0.7,2.6,1,5.3,1.1,7.9c0,0.7,0,1.3,0,1.9c0,0.7,0,1.3,0,1.9c-0.1,1.2-0.1,2.4-0.2,3.6
					c-0.5,9.6-1.7,19.4-3.2,29.2c-0.8,5.1-1.5,10.2-1.8,15c-0.3,4.8-0.2,9.6,1,13.2c0.6,1.8,1.5,3.2,2.7,4.4
					c1.2,1.2,2.7,2.2,4.6,2.9l1.4,0.6l1.5,0.5c0.5,0.2,1.1,0.3,1.7,0.4c0.6,0.1,1.2,0.3,1.7,0.4c2.3,0.5,4.7,0.8,7.1,1
					c-2-0.1-3.9-0.4-5.9-0.7c-1-0.2-1.9-0.3-2.9-0.6l-1.4-0.3l-1.3-0.4c-3.5-1-6.2-2.7-7.9-5.1c-1.4-2.2-2.2-5.2-2.4-8.6
					c0.1,3.5,0.9,6.5,2.4,8.6c0.7,1.1,1.6,2,2.7,2.9c0.3,0.2,0.6,0.4,0.9,0.6l0.4,0.3l0.5,0.3l1,0.5l1.1,0.5
					c0.7,0.3,1.5,0.5,2.2,0.8c0.8,0.3,1.7,0.5,2.5,0.7c0.8,0.2,1.7,0.4,2.5,0.6c0.8,0.1,1.7,0.3,2.5,0.4c6.7,1,13.1,0.6,18-1.2
					c1.1,0,1.2,0.2,2.2-0.1c3.6-0.8,7.1-2,10-3.9c2.9-1.8,5.1-4.1,6.6-6.6c-0.1-0.1,1.4-2.5,0.6-1.9c1.4-2.4,2.6-5.4,3.3-8.6
					c0.7-3.2,1-6.7,0.8-9.9c-0.1-1.4-0.2-2.8-0.4-4.2c-0.3-1.4-0.6-2.8-1-4.2l-0.4-2.2c-0.1-0.7-0.3-1.5-0.4-2.1l-0.5-2.1
					c-0.2-0.7-0.4-1.4-0.6-2.1c-0.8-2.8-1.9-5.8-3-8.7c-2.2-5.9-4.8-12-7.4-18.3c-5.2-12.6-10.5-25.9-14.1-41
					c-1.8-7.5-2.9-16.6-2.9-24.8c0.4,6,1.1,12,2.4,17.8l0.4,2.2l0.5,2.2c0.4,1.4,0.7,2.9,1.1,4.3c0.8,2.8,1.6,5.7,2.5,8.5
					c2.8,11.1,6.4,21.1,10.3,28.8c0.9,1.8,1.7,3.6,2.6,5.4c-4.6-11.1-9.2-22.4-12.9-34.2c-1.6-6.5-3-13.4-3.9-20.3
					c0,0.1,0.1,0.3,0.1,0.4c0.3,1.3,0.5,2.7,0.8,4c0.3,1.3,0.6,2.6,0.9,4c0.6,2.7,1.4,5.2,2.1,7.8c2.3,9.9,5.4,18.9,8.7,26.3
					c0.4,0.9,0.8,1.8,1.3,2.7c0.8,1.8,1.7,3.6,2.5,5.4c-2.8-6.9-5.6-13.8-8.2-20.9c-0.8-2.2-1.5-4.4-2.3-6.7
					c-0.7-2.3-1.4-4.5-2.1-6.8c-0.3-1.5-0.6-2.9-1-4.4c-0.3-1.5-0.6-3-0.8-4.5c0.1,0.3,0.2,0.6,0.3,0.9c0.2,0.6,0.5,1.6,1,2.5
					c0.5,0.9,1,1.9,1.5,2.6c1,1.5,1.9,2.1,1.8,0.2c-1.2-4.8-2.2-10.2-3-15.7c-0.3-2.7-0.7-5.5-0.8-8.1c-0.1-1.3-0.2-2.6-0.2-3.9
					c0-1.3,0-2.6,0-3.8c0-0.6,0-1.2,0-1.8c0-0.6,0.1-1.2,0.1-1.7c0.1-1.1,0.1-2.2,0.2-3.3c0-1,0.2-2,0.3-2.9
					c0.1-0.9,0.2-1.7,0.3-2.5c0.1-0.8,0.2-1.5,0.3-2c0.1-0.6,0.2-1.1,0.3-1.5c0.1-0.4,0.2-0.7,0.2-0.9c0.1-0.2,0.1-0.3,0.1-0.3
					c0.5-0.6-1.2,8-1,16.4c0,1.1,0.1,2.1,0.1,3.1c0,1,0,2,0.1,3c0.2,1.9,0.3,3.7,0.5,5.2c0.4,3,0.7,4.9,0.7,4.5
					c-0.1-1.9-0.3-3.8-0.3-5.8c0.2,1.8,0.6,3.6,1,5.2c0.6,3.8,1.3,8.9,2.2,11.4c1.4,4.3,2.8,8.8,4.2,13.5c1.5,4.6,3.1,9.4,5.1,14
					c2.6,5.7,5.9,12.4,9.2,19.1c0.4-0.1,1.5,3.4,1.4,2.1c1.2,3.3,2.5,6.9,3.6,9.9c1.2,3.1,2.2,5.7,3.2,7c0.1,0.2,0.1,0.3,0.2,0.5
					c0.1,0.5,0.4,1.2,0.6,1.9c0.4,1.4,0.6,2.8,0.9,4.2c0.3,1.4,0.5,2.7,0.7,4c0.1,0.6,0.2,1.3,0.3,1.9c0.1,0.6,0.2,1.3,0.2,1.9
					c0.1,1.3,0.4,2.5,0.5,3.7c0.5,4.9,0.8,9.8-0.1,15.5c-0.7,3.8-2.1,7.7-4.2,11.3c1.5-2.3,3.1-6.1,3.7-8.7c0.2-0.9,0.3-1.7,0.5-2.6
					c1-5,1.1-9.8,0.8-14.5c-0.3-4.7-1.1-9.2-2.2-13.7c-0.1-0.4-0.3-0.8-0.5-1.3c-0.2-0.5-0.4-1-0.6-1.6c-0.1-0.6-0.3-1.3-0.4-1.9
					c-0.1-0.1-0.2-0.3-0.3-0.4c-2.9-8.2-6.5-17.2-9.6-23.8c-5.4-12.7-10.1-26.7-13-40.5c1.8,6.8,4.1,13.3,6.5,19.6
					c-2.9-7.9-5.4-15.6-7.2-23.1c-0.2-1.2-0.5-2.3-0.6-3.5c-0.4-2.5-0.8-4.9-1-7.4c0.1,1.2,0.1,2.3,0.3,3.5c0.1,1.1,0.3,2.3,0.4,3.4
					c-0.2-1.1-0.5-2.3-0.7-3.4c-0.2-1.1-0.4-2.3-0.5-3.4c-0.2-1.1-0.4-2.3-0.5-3.4c-0.1-1.1-0.2-2.3-0.3-3.4
					c-0.4-6.3-0.2-12.7,0.8-19.1c1.1-6.4,3.1-12.6,5.9-18.5l2.3-4.4c0.9-1.4,1.8-2.8,2.6-4.1c0.8-1.4,1.9-2.7,2.9-4l1.5-1.9l0.8-1
					c0.3-0.3,0.6-0.6,0.8-0.9l3.3-3.6l0.8-0.9l0.9-0.8l1.8-1.6l1.8-1.6c0.6-0.5,1.2-1.1,1.9-1.6l3.8-2.9c-0.3,0.5-0.6,1-0.9,1.6
					c-1.2,1-2.4,1.9-3.6,2.9c-1.1,1-2.3,2.1-3.4,3.1c-0.6,0.5-1.1,1-1.7,1.6c-0.5,0.6-1,1.1-1.5,1.7c-1,1.1-2,2.2-3,3.3
					c-0.9,1.1-1.8,2.3-2.6,3.5c-0.8,1.2-1.7,2.3-2.4,3.5c-0.7,1.2-1.4,2.4-2,3.5l-0.5,0.9c-0.1,0.3-0.3,0.6-0.4,0.9
					c-0.2,0.6-0.5,1.2-0.7,1.8c0.4-0.8,0.8-1.5,1.2-2.3c0.4-0.7,0.9-1.4,1.3-2c0.8-1.3,1.6-2.6,2.4-3.8c0.9-1.2,1.8-2.4,2.7-3.6
					c0.5-0.6,0.9-1.3,1.4-1.9c0.5-0.6,1.1-1.2,1.7-1.8c0.1,0.1,0.2,0.1-0.1,0.6c1.4-1.6,2.9-3.5,4.7-5.2c1.8-1.7,3.5-3.5,5.5-5
					c-0.5,0.7-1,1.4-1.5,2.1c-0.5,0.8-1,1.5-1.4,2.3c-0.8,1-1.9,2.1-3.1,3.3c-1.1,1.3-2.3,2.7-3.5,4.1c-5.1,6-9.3,12.6-12.3,19.6
					c-2.9,7-4.6,14.5-5,22.3c-1.2,13.8,1.2,27.7,4.9,40.9c-2.1-6.5-3.8-12.8-5-19.1C143.2,146.8,142.4,140.6,142.4,134.4z
					 M26.8,242.5c-0.4-1.1-0.7-2.3-1.1-3.5c0,0.2,0,0.4,0,0.6C26,240.7,26.4,241.8,26.8,242.5z M27.4,217.8
					c-1.6,2.8-2.6,6.9-2.4,11.5c0,2.3,0.4,4.7,0.8,7.1c0.5,2.4,1.1,4.9,1.9,7.3c0.1,0,0.1,0.1,0.2,0c-1-4.1-2.1-8.7-2.4-13.3
					c-0.2-2.3-0.1-4.6,0.1-6.7c0.1-0.6,0.2-1.1,0.3-1.6l0.1-0.8c0.1-0.3,0.1-0.5,0.2-0.8c0.2-0.5,0.3-1,0.5-1.5
					C27,218.7,27.2,218.2,27.4,217.8z M53,202.2c-0.1,0-0.1,0-0.2,0c0,0,0,0,0.1,0.1C52.9,202.3,52.9,202.2,53,202.2z M106.6,285.8
					c-2.6-0.8-5.5-2.1-8-4.2c-2.6-2.2-4.7-5.3-5.8-8.6c-1.2-3.3-1.6-6.8-1.8-10.1c-0.1-3.3,0-6.6,0.3-9.8c0.4-3.8,0.2-7.7,0.9-12.6
					c0.8-6.2,1-9.9,1.4-14.8l-0.9,3.6c1.4-8.5,0.8-13.4,1.8-21.7c-0.2-0.1-0.5-1.1-0.5-2.1c-0.1-2.5-0.3-4.9-0.8-6.7
					c-0.3-0.9-0.6-1.7-1-2.3c-0.4-0.6-0.9-1.1-1.3-1.5c-1.1-1-2.6-1.7-4.4-2.1c-1.8-0.4-4-0.5-5.9-0.2c-1,0-2.9,0.7-4.9,1.3
					c-2.5,0.5-5,1.2-7.6,2c0.1,0,0.2,0,0.4,0.1c2.1-0.6,4.2-1.2,6.2-1.7c3-0.8,6.3-1.2,9.1-1.1c1.4,0.1,2.7,0.3,3.8,0.6
					c1.1,0.3,1.9,0.8,2.6,1.3c0.8,0.6,1.5,1.4,2.1,2.5c0.6,1.1,1,2.5,1.3,4.1c0.3,1.6,0.4,3.4,0.4,5.3c-0.1,2.1-0.1,4.3-0.3,6.4
					c-0.4,8.6-1.4,17-2.3,25.7c-0.4,3.7-0.6,7.5-0.8,11.4c-0.2,2.9-0.3,6-0.3,9.2c0,3.2,0.2,6.5,0.9,9.9c0.7,3.3,2.1,6.6,4,9.1
					c1.9,2.6,4.3,4.2,6.4,5.1C102.6,284.5,105.1,285.7,106.6,285.8z M121.9,280.8c-3-0.2-6.1-0.6-9.2-1.3c-0.8-0.2-1.5-0.4-2.2-0.6
					c-0.7-0.2-1.4-0.5-2-0.7c-0.7-0.2-1.2-0.6-1.9-0.9c-0.6-0.3-1.2-0.7-1.7-1.1c-1.1-0.7-1.9-1.6-2.7-2.6c-0.7-1-1.3-2.1-1.7-3.4
					c-0.9-2.5-1.1-5.3-1.1-8.1c0-2.3,0.1-5.7,0.4-9.6c0.3-3.9,0.7-8.2,1-12c0.6-7.8,0.6-13.8-0.9-11.5c0.6,3.2,0.1,9.9-0.8,17.9
					c-0.4,4-0.9,8.4-1,12.7c-0.1,4.3,0.2,8.7,1.6,12.2c1.4,3.5,4.2,5.8,7.2,7.3c0.7,0.4,1.6,0.7,2.3,1c0.8,0.2,1.5,0.5,2.3,0.7
					c0.8,0.2,1.5,0.4,2.3,0.5c0.7,0.1,1.4,0.3,2.1,0.4C121.1,282.6,123.7,282.1,121.9,280.8z M154.2,219.1c1.9,4.6,3.7,9.2,4.8,14.3
					C157.8,228.8,156.1,223.9,154.2,219.1z M163.8,267.2c2.9-7.4,3.2-15.6,2.5-23.7c-0.2-2-0.4-4-0.8-6c-0.3-2-0.8-4-1.2-5.9
					c-1-3.9-2.4-7.7-3.8-11.4c-2.2-5.7-4.4-11.8-6.6-17.8c-2.2-6-4.4-11.8-6.9-17l-0.6,0.2l0.6,1.1c1.3,4.2,2.2,7.7,3.3,11.2
					c-0.1-0.2-0.2-0.4-0.3-0.6c0.1,0.3,0.3,0.7,0.4,1c0.7,2.3,1.6,4.7,2.8,7.4c0.5,1.2,1.1,2.5,1.7,3.7c2.8,7.2,5.6,14.4,7.6,21.5
					c0.3,0.9,0.5,1.7,0.7,2.6c0.2,0.9,0.4,1.7,0.6,2.6c0.3,1.8,0.7,3.6,0.9,5.3c0.6,3.5,0.7,6.9,0.9,10.3c0,4.1-0.4,7.9-1.3,11.6
					c-0.9,3.7-2.5,7.3-5,10.7c0.8-0.9,1.8-2,2.6-3.3C162.7,269.7,163.3,268.3,163.8,267.2z"/>
				<path class="st1" d="M143.6,157.3c-0.3-1.3-0.5-2.6-0.8-4c-0.3-1.3-0.5-2.7-0.7-4c-0.2-1.4-0.4-2.7-0.6-4.1
					c-0.1-1.4-0.2-2.7-0.3-4.1c-0.4-4.2-0.5-8.5-0.3-12.8c0.4-5.1,1.2-10.4,2.9-15.7c0.7-2.7,1.9-5.2,3-7.8c0.6-1.3,1.3-2.5,1.9-3.8
					c0.7-1.3,1.3-2.5,2.1-3.7c6-9.7,14.3-18,23-24.7c0.2-0.9-0.1-1.4-1.1-1.4c-9.9,6.9-18.7,16-25,26.8c-3.1,5.4-5.4,11.2-7.2,17.2
					c-1.6,6-2.5,12.1-3,18.2c0,0.2,0,0.4,0.1,0.6c0.4,5.3,0.8,12,2,19c1.1,6.9,2.9,14.1,5.1,20c4.5,11.8,9.3,23.3,14.5,34.6
					c-3.1-8.4-6.3-16.6-9-24.9C147.4,174.5,145,166.1,143.6,157.3z"/>
				<path class="st1" d="M143.7,293.9c2.8-0.8,5.6-1.7,8.3-3c1.4-0.6,2.7-1.4,4-2.1c1.3-0.8,2.6-1.6,3.8-2.6
					c3.4-2.6,6.4-5.8,8.6-9.2c2.3-3.4,3.9-7.1,5-10.7c0.6-1.8,1-3.6,1.3-5.4c0.2-0.9,0.3-1.8,0.4-2.7c0.1-0.9,0.2-1.8,0.3-2.7
					l0.2-2.6c0.1-0.9,0-1.7,0-2.6c0-0.9,0-1.7,0-2.6l-0.2-2.6c0.2,5,0,10.1-1.1,15.3c-1.1,5.2-3.1,10.4-6.3,15.1
					c-1.5,2.4-3.3,4.5-5.1,6.5c-1.9,1.9-3.8,3.7-5.9,5.1C152.9,290.1,148.5,292.3,143.7,293.9z"/>
				<path class="st1" d="M173.9,234.4c0.7,3.6,1.3,7.1,1.6,10.8c-0.1-3.7-0.6-7.3-1.1-10.9c-0.6-3.7-1.5-7.3-2.6-10.6
					c-2.1-6.8-4.5-13.1-7-19.4c-4.2-10.2-8.4-20.3-11.8-30.5c-1.7-5.1-3.2-10.3-4.4-15.5c-0.7-2.6-1.1-5.2-1.6-7.8l-0.6-4
					c-0.1-0.7-0.2-1.3-0.3-2l-0.2-2c-0.1-1.2-0.2-2.4-0.3-3.6c0-1.2,0-2.4-0.1-3.6l-0.1,3.7c0,1.2,0.1,2.5,0.1,3.7l0.1,1.9
					c0,0.6,0.1,1.2,0.2,1.9l0.3,3.7c0.7,4.9,1.5,9.9,2.7,14.7c2.2,9.7,5.5,19.1,8.9,28.3c3.4,9.2,7.2,18.1,10.4,27.1
					c1.6,4.5,3.1,9.1,4.1,13.9c0.9,4.7,1.6,9.3,1.9,14c0,0.7,0,1.5,0.1,2.2c0.1-2.3,0-4.5-0.1-6.7c-0.2-2.2-0.3-4.4-0.7-6.5
					c-0.2-1.1-0.3-2.2-0.5-3.2l-0.7-3.3c-0.2-1.1-0.5-2.1-0.8-3.2l-0.4-1.6l-0.5-1.5c-2.5-8.2-5.6-15.8-8.5-23.4
					c2.2,5.3,4.4,10.6,6.5,16.1C170.7,222.5,172.7,228.1,173.9,234.4z"/>
				<path class="st1" d="M144.9,162.4c-0.2-1.2-0.4-2.4-0.7-3.5c-0.3-1.4-0.7-2.7-0.9-4c0.1,0.8,0.2,1.7,0.4,2.5
					C144,159,144.4,160.7,144.9,162.4z"/>
				<path class="st1" d="M150.4,198c0,0.1,0.1,0.3,0.1,0.4c1.4,3.7,2.9,7.4,4.4,11.1c2.2,5.1,4.5,10.4,6.3,15.8
					C158.1,215.4,153.9,205.6,150.4,198z"/>
				<path class="st1" d="M156.8,231.2c0.1,0.5,0.3,1.3,0.5,2.1c0.1,0.8,0.3,1.5,0.4,2c0.2,0.6,0.5,1.2,0.7,1.9c-0.1-1.1-0.3-2-0.5-3
					C157.6,233.2,157.2,232.2,156.8,231.2z"/>
				<path class="st1" d="M137.1,279.2c2.3-0.5,4.6-1.1,6.6-2c2.1-0.9,4-1.8,5.7-3.1c1.7-1.2,3.2-2.5,4.5-4.1c1.3-1.5,2.4-3.2,3.2-5
					c1.8-3.6,2.6-7.7,2.9-12c0.3-4.3,0-8.8-0.7-13.3c-0.3-0.9-0.5-1.7-0.8-2.6c0.8,6.1,1.1,12.1,0.4,17.5
					c-0.7,5.4-2.1,10.1-4.7,13.9c-0.9,1.5-2.6,3.9-4.2,4.9c-3.7,2.6-8,4.4-12.8,5.5c-2.4,0.5-4.8,0.9-7.3,1c-2.5,0.2-5,0.2-7.5,0
					c4.8,0.4,9.7,0.3,14.4-0.7L137.1,279.2z"/>
			</g>
		</g>
	</g>
</g>
<g>
	<g>
		<g>
			<g>
				<path class="st2" d="M99.7,131.6c0-0.2,0-0.3,0-0.3l-0.2,0C99.5,131.4,99.6,131.5,99.7,131.6z"/>
				<path class="st2" d="M101.9,132.2l0-0.1c-0.1,0-0.1,0-0.2,0C101.8,132.1,101.9,132.1,101.9,132.2z"/>
				<path class="st2" d="M99.5,131.3c-0.7,0-1.4,0-2.1-0.2c0-0.1,0-0.4,0-0.5c-0.4-0.1-0.8,0-1.2,0c0-0.1,0-0.2-0.2-0.2
					c-0.3-0.1-0.5,0-0.6,0c-0.2,0-0.3,0.1-0.4,0.2c1.1,0.3,1.8,0.8,2.4,1.1C98,132,98.6,132.2,99.5,131.3z"/>
				<path class="st2" d="M100.9,132.9l0.1-0.9c-0.4-0.2-0.9-0.3-1.3-0.3C99.9,132.1,100.3,132.5,100.9,132.9z"/>
				<path class="st2" d="M101.7,127.6c0.1,0,0.2,0,0,0.2C101.7,127.7,101.7,127.6,101.7,127.6c-0.1,0-0.3,0.1-0.4,0
					c0.3,0.6,0.7,1.4,0.7,2.1c0.2,0.1,0.4,0.2,0.6,0.3c-0.1-2-0.6-4-2.2-5c0.2,0.5,0.4,0.9,0.6,1.3
					C101.3,126.6,101.6,127.1,101.7,127.6z"/>
				<path class="st2" d="M103.9,130.1l0,0.2C104.1,130.1,104,130.1,103.9,130.1z"/>
				<path class="st2" d="M81.2,123.9c-0.3,0.9-0.1,1.9,0.3,2.9c0-1.7,0.7-3.3,1.1-4.7C82.1,122.6,81.7,123.2,81.2,123.9z"/>
				<path class="st2" d="M83.5,130.4c0.4-0.8-0.1-1.5-0.5-2.3c0,0.7,0.1,1.4,0.2,2.1C83.3,130.3,83.4,130.3,83.5,130.4z"/>
				<path class="st2" d="M82.3,129.4c0.1-0.4-0.1-0.8-0.2-1.3c-0.1-0.2-0.2-0.4-0.3-0.7l-0.3-0.7C81.5,127.7,81.8,128.6,82.3,129.4z
					"/>
				<path class="st2" d="M101.9,107.4c0.9,0.2,1.6,0.4,2.1,0.6c0.5,0.2,0.9,0.4,1.2,0.6c0.4,0,0.9-0.1,1.5-0.1
					c-0.1-0.1-0.2-0.1-0.2-0.2c-1.7-0.9-3.4-1.7-5.2-2.3c-0.8-0.1-1.6-0.2-2.2-0.1C100,106.3,100.9,106.9,101.9,107.4z"/>
				<path class="st2" d="M105.1,108.6c-1.6,0.2-1.1,0.5-0.5,0.6C105.3,109.4,106.1,109.3,105.1,108.6z"/>
				<path class="st2" d="M92.2,115.7c0,0-0.1,0-0.1,0l-0.4,0.1C91.8,115.7,92,115.7,92.2,115.7z"/>
				<path class="st2" d="M78.1,113.8c0.4-0.4,0.9-0.7,1.3-1.1c0.4-0.4,0.9-0.7,1.4-1.1c-2,1.3-3.7,3-4.6,4.7
					c0.2-0.2,0.5-0.3,0.7-0.4c0.1-0.3,0.2-0.7,0.4-1.1C77.5,114.4,77.8,114.1,78.1,113.8z"/>
				<path class="st2" d="M99,117.2c-2.3-1.2-4.8-1.7-7-1.5c-2.1-0.4-4.3-0.1-6.1,0.7c-1.8,0.8-3.2,2.3-3.8,3.9
					c-0.5,1.5-1.4,3.1-1.7,4.9c-0.3,1.8,0.1,3.7,1.7,4.7c0.1-0.2,0.1-0.4,0.1-0.6c0.3,0.3,0.6,0.6,0.9,0.8c0.7,3,2.5,5,4.3,5.9
					c0.3,0.2,0.7-0.3,0.9-0.2c0.1,0,0.2,0,0.3,0c0.1,0,0.2,0,0.3,0c0,0,0-0.1,0-0.1c0.9-0.2,1.6-0.8,1.8-1.8c0.2-0.4,0.6-0.5,0.9-1
					c0.1-0.2,0.8,0.2,1,0.2c1.1-0.1,2.2-0.4,2.7-1.3c0,0,0.4,0.1,0.6,0.1c0-0.2,0-0.3,0.1-0.4c1.1,0.4,1.7,1.1,2.2,1.5
					c0.6,0.4,1.1,0.6,2.1-0.2l0,0c0,0.1,0.1,0.2,0.1,0.3l0,0l0,0c0.2,0.5,0.5,1,1,1.4c0.1-0.3,0.2-0.7,0.3-1
					c0.3,0.1,0.5,0.2,0.8,0.3l0.1,0.1c0,0.2-0.1,0.3-0.1,0.3c0.1,0.1,0.3,0.2,0.4,0.2c0.3,0.6,0.3,1.3,0.5,1.9c0.1,0.6,0.2,1,0.7,1
					c0.5-0.1,0.5-1,0.5-1.9c0.1,0,0.2-0.1,0.2-0.1c-0.2,1.2,1.3,0.4,1.2,1.2c-0.3,1-0.6,2.1-1.1,3c-1,1.9-2.2,3.6-3.6,5
					c-1.4,1.5-3,2.8-4.9,4l-0.5,0.3c-2,1-4.1,1.6-6.3,1.4c0.1-0.1,0.3-0.3,0.4-0.4c-0.9,0-1.7-0.1-2.6-0.2l-1.3-0.1
					c-0.4,0-0.9-0.1-1.3-0.1c-4.3-0.2-8.9-2.3-11.9-6.1c-3.1-4-5-8.8-5.5-14.1c0.4,2.2,1,4.3,1.6,6.3c0.2,1,0.5,1.9,0.9,2.7
					c-0.3-0.9-0.6-1.8-0.9-2.7c-0.4-1.8-0.5-3.7-0.7-5.5c0-0.9-0.2-1.8-0.3-2.6c-0.1-0.9-0.4-1.7-0.6-2.5c0.2-0.3,0.4-0.2,0.5-0.6
					c0.2-1.1,0.7-2.1,1-3.2c0.4-1,0.6-2,0.8-3.1c-0.2-0.1,0.3-1-0.2-0.9c0.4-0.9,1-1.9,1.6-2.8c0.7-0.9,1.3-1.8,1.9-2.7
					c0.5-0.7,1-1.6,1.5-2.6c5.5-5.7,15-9.1,24.6-6.3c1.2,0.3,2.4,0.9,3.6,1.5c1.1,0.6,2.3,1.3,3.2,2.1c-3.2-1.7-6.8-2.8-10.4-3.2
					c-3.4-1-6.9-1-9.5,0.3c-0.6,0.3-1.2,0.6-1.7,0.8c3.5-1.2,7.4-1.6,11.2-1.1c1,0.3,2,0.6,2.9,1.1c0.5,0.2,1,0.4,1.4,0.6
					c0.5,0.2,0.9,0.5,1.4,0.7l-0.1,0c-1.5-0.5-3.1-0.9-4.7-1.2c-0.7-0.2-1.4-0.5-2.1-0.6c-0.7-0.1-1.4-0.2-2.1-0.3
					c-1.4,0-2.8,0-4,0.5c-0.3,0.1-0.6,0.2-0.9,0.3c-0.6,0.2-1.1,0.5-1.7,0.7c2.1-0.6,4.3-0.9,6.6-1c0.7,0,1.4,0,2.1,0.1
					c0.7,0.1,1.4,0.2,2.1,0.3c0.8,0.3,1.6,0.7,2.5,1c-0.1,0-0.2,0-0.3,0c-0.4-0.1-1.3,0.3-1.9,0.7c-0.7,0.5-1.1,1.1-0.7,1.6
					c2.5,0.8,5.3,2.1,7.3,3.5c1,0.7,1.8,1.4,2.4,1.9c0.5,0.5,0.8,0.9,0.8,0.9c-0.1,0.2-0.6-0.1-1.2-0.5c-0.7-0.4-1.5-1-2.5-1.5
					c-0.5-0.2-0.9-0.5-1.3-0.7c-0.4-0.2-0.8-0.4-1.2-0.5c-0.7-0.3-1.1-0.4-1.1-0.3c0.4,0.3,0.7,0.6,1,0.9c-0.5-0.1-0.9-0.2-1.3-0.2
					c-0.9-0.3-1.9-1-2.6-0.8c-1.2,0.1-2.3,0-3.4-0.1c-0.6,0-1.1-0.1-1.7,0c-0.6,0-1.1,0.1-1.7,0.3c-0.7,0.3-1.4,0.7-2.1,1.1
					c-0.7,0.5-1.4,0.9-2,1.5c0.1,0.4-0.6,0.4-0.3,0.7c-0.6,0.1-1.3,0.5-1.8,0.8c-0.5,0.4-0.8,0.9-0.7,1.5l-0.1,0.1
					c-0.1,0-0.1,0.2-0.2,0.3c-1.8,0.9-2.2,2.7-2.5,4.4c-0.3,0.5-0.5,1-0.8,1.5c0.2-0.3,0.7-0.7,0.7-1.1c0-0.1,0.1-0.3,0.1-0.4
					c0.7-1.3,1.4-2.6,2.4-3.8c0-0.2,0.1-0.4,0.2-0.6c0.1,0,0.2-0.1,0.3-0.1c0-0.1,0-0.2,0-0.2c1-1.2,2.6-2,3.8-2.8
					c2.5-1.1,5.5-0.7,7.9,0.4c-0.7-0.1-1.4-0.1-2-0.1c-0.7,0.1-1.3,0.1-1.9,0.3c1.5-0.2,3.1-0.2,4.5,0.1c0.2,0.1,0.4,0.2,0.6,0.3
					c0.4,0.2,0.8,0.4,1.3,0.7c-0.3-0.3-0.7-0.5-1.1-0.8c0.4,0.1,0.9,0.2,1.4,0.3l1.3,0.4c2.3,1.1,4.4,2.9,5.9,5.1
					c1.5,2.2,2.4,4.9,2.5,7.5c-0.3-0.1-0.5-0.2-0.8-0.3c-0.4-2.4-1.3-4.9-3.1-6.1c0.6,1.2,1.3,1.9,1.7,3.2c-0.1,0-0.3,0.1-0.4,0
					c0.3,0.4,0.4,0.8,0.6,1.2c0.2,0.4,0.4,0.9,0.4,1.4c-0.6-0.2-1.1-0.5-1.6-0.7c-0.5-0.4-0.6-1-1-1.6c-0.6-1.3-1.2-2.5-2-3.6
					c-0.8-1.1-1.7-2-2.8-2.8c-1.7-1.6-3.8-2.8-6-3.3C94.5,115.7,96.8,116.2,99,117.2z M98.5,136.1c0,0.2,0,0.4,0,0.6l0.2,0
					C98.7,136.6,98.6,136.3,98.5,136.1z M96.1,139c1-0.5,1.6-2,1.9-3.3c0,0-0.1-0.1-0.1-0.1C97.3,136.5,96.9,137.9,96.1,139z
					 M91.2,137.4L91.2,137.4L91.2,137.4L91.2,137.4z M77.1,132.1c1.1,1.4,1.6,3.1,2.8,4.4c0.1,0.2,0.4,0.4,0.7,0.5
					c0.3,0.1,0.6,0.2,0.8,0.5c0.3,0.3,0.6,0.4,0.9,0.5c0.3,0.1,0.6,0.2,0.9,0.3l0-0.6c0.3,0.4,0.7,0.5,1.2,0.6
					c0.2,0,0.4,0.1,0.6,0.1c0.2,0.1,0.4,0.2,0.5,0.4c0.1-0.2,0.4-0.4,0.5-0.4c0.6,0.1,1,0.7,1.5,0.4c0.6,0,1.1,0.1,1.5-0.3
					c0.1,0,0.3-0.6,0.5-0.7c0.2-0.1,0.4-0.2,0.6-0.2l0-0.1c-0.2,0-0.3,0-0.5,0.2c-0.5,0.4-1.2,0.8-1.8,0.7c-0.8,0-1.6-0.1-2.5-0.3
					c-0.9-0.2-1.8-0.6-2.7-1.2c-0.4-0.2-1-0.4-1.4-0.7c-0.2-0.1-0.3-0.2-0.5-0.4c-0.1-0.1-0.3-0.3-0.4-0.4c-0.1-0.2-0.3-0.3-0.4-0.5
					c-0.1-0.2-0.2-0.3-0.3-0.5c-0.2-0.3-0.5-0.7-0.7-1c-0.3-0.3-0.6-0.6-1-0.8C77.6,132.6,77.5,132.2,77.1,132.1z M68.5,129.7
					c0.7,3.2,1.7,6.4,2.7,9.1c0.4,1.1,1.7,3,3.3,4c0.8,0.5,1.6,0.8,2.2,0.9c0.6,0,1.1-0.2,1.4-0.8c-1.2,0.3-2.6-0.4-3.8-1.7
					c-1.2-1.4-2.1-3.3-2.6-5.2C70.5,132.2,70.8,128.8,68.5,129.7z M80.9,106.3c-0.7,0.4-1.3,0.9-2,1.3c-0.7,0.4-1.3,0.9-2,1.4
					c0.6-0.5,1.2-1,1.9-1.4c0.3-0.2,0.7-0.5,1-0.7L80.9,106.3z M75.8,120.3c0.3-1.7,1.2-3.3,2.3-4.8c1.2-1.4,2.6-2.6,4.1-3.7
					c1.2-0.8,2.7-1.2,4.2-1.4c0.4-0.1,0.7-0.1,1.1-0.2c0.4,0,0.7-0.1,1.1-0.2c0.7-0.2,1.4-0.3,2.1-0.6l0-0.6l-0.3,0.2
					c-1.1-0.2-2-0.4-2.9-0.5l0.2-0.1l-0.3,0.1c-0.6,0-1.3,0.1-2,0.3c-0.3,0.1-0.6,0.3-0.9,0.5c-3.7,1.3-7,3.9-8.2,7.1
					c-0.9,1.9-1,3.7-1.3,5.5C75.2,121.4,75.7,120.8,75.8,120.3z"/>
				<path class="st2" d="M95.6,114.4c0.5,0.1,1,0.3,1.6,0.4c0.5,0.2,1,0.4,1.5,0.6c0.8,0.3,1.7,0.6,2.5,1.1c1.9,1.1,3.5,2.9,4.6,5
					c1.1,2.1,1.8,4.5,2.3,6.8c0.6,0.1,1.2,0.1,1.8-0.2c0.1-2.8-0.8-5.6-2.2-8c-1.4-2.4-3.3-4.6-5.3-6.5l-0.1,0
					c-1.3-0.3-2.6-1.1-4.2-1.6c-1.5-0.6-3.1-1-4.6-0.9c-2.9,0.5-5.6,1.1-7.7,2.6c1.7-0.4,3.4-0.7,5.1-0.6
					C92.4,113.2,94.1,113.6,95.6,114.4z"/>
				<path class="st2" d="M83,128.1c0-0.2,0-0.5,0-0.7c0-0.2,0-0.5,0.1-0.7c0.1-1.4,0.3-2.7,0.8-4.2c-0.7,0.7-1.2,1.6-1.8,2.5
					c-0.2,0.5-0.1,1.1,0.1,1.6C82.4,127.2,82.7,127.6,83,128.1z"/>
				<path class="st2" d="M84.4,121.3c-0.2,0.4-0.4,0.8-0.5,1.2c1-1.1,2.2-2,3.5-2.6c2.2-1.3,5.2-1.7,8.4-0.8c0.4,0.1,0.7,0.3,1,0.5
					c-2.2-2-5.4-3.2-8.2-2.7c-2.8,0.4-5.2,2.4-5.9,4.8c0,0.1-0.1,0.2-0.1,0.3c1.3-1.6,3-2.8,5-3.5C86.3,119.2,85.1,120.2,84.4,121.3
					z"/>
				<path class="st2" d="M94.6,114.3c0.2,0.1,0.4,0.2,0.6,0.3c0.3,0,0.5,0.1,0.8,0.1c-0.1-0.1-0.3-0.2-0.4-0.3L94.6,114.3z"/>
				<path class="st2" d="M87.4,108.4l-0.1,0c-1,0.3-2,0.5-2.9,0.9c-0.6,0.4-1.3,0.7-1.9,1.1l-0.9,0.6l-0.9,0.6
					C83,110.2,85.4,109.3,87.4,108.4z"/>
				<path class="st2" d="M76.8,107.1c-0.3,0.2-1,0.6-1.3,0.8l-0.4,0.7c0.3-0.2,0.6-0.4,0.9-0.6L76.8,107.1z"/>
				<path class="st2" d="M67.6,125.2c0.4-5.8,2.8-11.3,7.1-15.7c0.1-0.3,0.3-0.6,0.4-0.9c-3.4,2.3-6,5.9-6.6,9.5
					c-0.2,0.7,0,1.9-0.3,2.5c-1.1,3-1,6.1-0.5,8.9c-0.1-1.3-0.1-2.7-0.1-4.2L67.6,125.2z"/>
			</g>
		</g>
	</g>
</g>
<g>
	<path class="st2" d="M186.9,121.1c-0.4,7.2-4.4,8.4-8.8,2.6c-4.9,5.8-9,4.5-9.1-2.9c-3.2,4.8-3.1,4.8,0.1,0c-6.7,2.1-8.5-1-3.9-7.1
		c-4.6,2.1-4.6,1.7,0.1-0.8c-4.5,1.4-4.2,0.9,0.5-1.2c-4.1,1-3.6,0.4,1-1.2c-3.5,0.6-2.8,0.3,1.6-0.7c-3.8,3.5-3.6,5.5,0.6,4.4
		c-2.4,3.7-1.3,4.7,2.6,2.3c-0.1,4.5,2.9,5.1,6.6,1.4c3.2,3.7,6,2.9,6.3-1.7c4.9,1.7,6.3-0.2,3-4.1c3.3,0.4,2.6-0.8-1.4-2.7
		c1.7,2.4,0.2,3.8-3.2,3.1c-0.2,2.8-2.3,3.4-4.7,1.2c-2.4,2.2-4.4,1.7-4.4-1.1c-3.1,0.8-3.9-0.6-1.7-3.2c-2.2-0.6-1.9-1.7,0.6-2.4
		c-1.4-1-0.7-1.7,1.6-1.5c-0.5-1.2,0.5-1.6,2.3-0.8c0.6-1.2,1.8-1.3,2.7-0.3c0.4-1.1,3.8-1.1,2.5,0c2.4-1.1,3.5-0.9,2.4,0.4
		c2.2-1.4,2.3-1.9,0.2-1.1c2.2-1.8,2.3-2.3,0.1-1c2.2-1.7,2.2-1.8,0-0.1c2.2-3.4,1.6-5-1.4-3.6c1.7-3,1.8-3,0.1,0
		c1.5-3.2,1.2-3.5-0.6-0.6c1.2-3.5,0.9-3.8-0.7-0.6c1.3-3.3,1.3-2.9,0.1,0.9c1.3-1.5,0.8-0.3-1,2.7c0-1.3-1.3-0.8-2.8,1
		c-1.1-1.8-2.1-1.9-2.2-0.1c-1.7-2-2.6-2.5-2-1.1c-1.7-2.3-2-2.5-0.6-0.5c-2.1-2.8-2.5-3.3-0.8-1.1c-2.4-3.4-2.8-4.1-0.8-1.6
		c-2.6-4.2-2.8-5.1-0.4-2c-2.5-6-1.8-7.6,1.4-3.5c-0.7-6.5,1.3-7.2,4.3-1.4c2.5-5.8,5.5-4.3,6.6,3.3c5.3-1.4,7,2.3,3.8,8
		c3.2-1.8,3.2-1.1,0,0.5c3.2-1.4,3.2-1.2,0,0.5c3.3-1.2,3.3-0.9,0,0.6c3.3-0.6,3.2-0.1-0.1,1.2c3.2-0.2,3.1,0.3-0.2,1.2
		c5,1,6.4,2.6,3.1,3.4c5.1,2.5,5.6,4.2,1,3.8C195.8,119.8,193.8,123.2,186.9,121.1z M177.7,96.6c1.1,0.2,1.5-0.3,0.8-1.1
		c0.6-0.7,0.2-1.4-0.9-1.5c-0.1-1-0.8-1.2-1.6-0.6c-1.9-0.6-2.9,0.3-2.1,2.1c-0.8,0.7-0.5,1.2,0.7,1.1c0.1,0.9,0.8,1,1.5,0.4
		C177,97.6,177.7,97.4,177.7,96.6z M183,107.3c0.3-0.4-0.4-0.6-1.5-0.4c0.3-0.4-0.3-0.6-1.3-0.4c-3.5-0.4-5.3,0.4-4.1,1.6
		c-1.2,0.5-0.9,0.9,0.7,0.7c-0.4,0.6,0.3,0.7,1.5,0.3C180.7,109.7,182.8,108.8,183,107.3z"/>
</g>
<g>
	<path class="st2" d="M207.3,130.8c3.3-1,2.8-0.2-1.2,1.7c2.6-0.7,1.9-0.1-1.7,1.1c1.8-0.5,0.9-0.3-2,0.5c4,0.5,5.6,2,3.6,3.2
		c4.5,2.1,5.3,4.3,1.7,4.9c3.8,5.2,3,7.5-2,5.1c1.6,5.3-0.3,5.9-4.1,1.5c0.9,4.5,0.2,4.3-1.7-0.3c0.4,4.1-0.4,3.8-1.6-0.8
		c-0.5,3.3-1.2,2.5-1.7-1.8c-0.7,4.8-1.7,5.8-2.1,2.2c-2,4.8-3.4,5.1-3.1,0.7c-4.2,4.5-6,3.7-4.1-1.6c-4.7,2.4-5.4,0.5-1.5-4.4
		c-3.9,0.3-3.4-1.3,1.1-3.5c-2.9,0.6-2.3,0.2,1.4-0.9c-2.3,0.5-1.6,0.3,1.6-0.4c-0.9,0.7,0.4,1,2.7,0.8c-0.5,1.7-0.1,2.8,1,2.5
		c-1.1,3.1-1.6,4.1-1,2.2c-2.4,3.3-3.5,3.7-2.5,0.8c-2.3,2.9-2.6,1-0.2-1.4c-2.1,2.3-1.7,2.1,0.9-0.6c-1.6,1.7-1.3,1.3,0.6-0.8
		c-2.3,1.1-3,0.8-1.5-0.8c-4.4,1.6-5.4,2.4-2.2,1.8c-3.2,3.3-2.7,4,1.1,1.7c-1.8,3.3-0.8,3.6,2.2,0.6c-0.6,3,0.7,2.5,3-1.1
		c0.4,1.7,1.6,0.1,2.7-3.5c1.6,5.6,3.4,7.7,4.1,4.6c3.3,3,4.6,2.6,3.1-1c3.5,1.7,3.9,0.7,1-2.3c2.9-0.7,1.7-3.1-2.6-5.2
		c-0.7-1.9-3.4-2.9-6-2.1c-0.2-0.7-4.8-0.7-3.4,0c-1.4-0.7-1.4-5.8,0-3.7c-1.4-2.1,11.7-2.1,9.7,0c2.8-2.1,3.5-2.5,1.5-0.9
		c3.2-3.2,3.5-3.9,0.7-1.7c2.8-3.5,2.6-4.2-0.4-1.5c2.3-4.3,1.6-5.2-1.5-1.9c2.1-4.2,2.8-5.3,0.5-0.8c2.3-4.5,4.6-3.9,1.7,0.4
		c3.4-4,3.8-3.6,1,0.9c3.7-3.5,4.1-3,0.9,1.2c3.9-3,4.2-2.4,0.6,1.3c4-2.5,4.1-1.9,0.2,1.3C211.7,127.1,211.5,128,207.3,130.8z"/>
</g>
<g>
	<path class="st2" d="M208.6,177.8c6.1-5.7,5.4-6.6-1.6-2.1c4.3-6.8,1.5-7.7-6.2-2c1.2-5.7-1.1-5-5.1,1.7c0.3-3.6-1-1.7-2.8,4.2
		c1.1-3.6-28.9-3.6-22.2,0c-6.7-3.6-6.7,3.7,0,5.5c-6.7-1.7,5.6-1.7,9.1,0c-3-1.7-2.7-1.5,0.6,0.4c-3.3-1.1-3.5-0.6-0.5,1.3
		c-3.9-0.4-4.4,0-1.1,0.8c-3.9-0.8-14.8-0.8-8.1,0c-6.7-0.8-6.7,6.5,0,5.4c-6.7,1.1-1.9,1.1,3.6,0c-7.5,2.7-8.4,5.1-2.1,5.3
		c-6.2,3.4-6.1,4,0.1,1.3c-6,4.1-5.8,4.8,0.4,1.5c-5.7,4.7-5.3,5.4,0.9,1.6c-5.2,5.2-4.5,5.8,1.5,1.4c-4.5,5.5-3.8,5.9,1.4,0.9
		c-4.1,5.6-3.5,5.9,1.2,0.7c-3.7,5.8-3.1,5.9,1.4,0.4c-3.1,5.8-2.3,5.8,1.8,0.1c-1.3,5.7,0.3,5.5,3.6-0.5c-0.4,5.1,1,4.3,3-1.8
		c-0.6,4.7-0.2,4.3,0.7-0.8c-0.1,4.1,0.3,3.5,0.9-1.3c0.2,3.5,0.5,2.7,0.8-1.8c0.4,2.6,0.5,1.6,0.3-2.2c0.2,1.3,0.1,0.1-0.3-2.6
		c-0.2,0.9-0.8,0-1.4-2.1c-0.4,1.1,3.4,1.1,2.8,0c0.6,1.1,0.6-6.2,0-5.4c0.6-0.8-10.2-0.8-8,0c-2.2-1-2.1-1.5,0.1-1
		c-2.2-1.9-2.2-2.4,0-1.1c-2.2-1.8-2.2-1.9,0-0.4c-2.2-1.7,9.3-1.7,8.5,0c0.8-1.7,0.7-0.2-0.1,1.1c0.8,1.7,1.3,4,1.1,5.2
		c1.2,0.5,1.2,0.4,0-0.1c2.5,3,4.5,4.2,4.5,2.7c5.3,1.5,7.3,0.6,4.4-1.8c5.7-0.8,6.4-3.2,1.6-5.1c4.9-3.9,4.1-6.3-1.7-5.3
		c2.7-4.8,0.5-5.7-4.8-2.1c2.5-3.6,1.7-3.6-0.7,0c3.5-5.1,5.5-5.8,4.5-1.6c5.6-4.4,7.4-4.2,4,0.6c7.2-3.1,8.8-1.8,3.6,3
		C215.7,176.8,215.8,175,208.6,177.8z M183.4,194.4c2.2-0.1,2.7,1.2,1.1,2.9c1.6,1.6,1.1,3-1.2,3.2c0.2,2.3-1.5,2.9-3.7,1.3
		c-1.8,1.4-3.2,0.9-3.2-1.2c-2.3,0-2.9-1.2-1.3-2.7c-1.6-1.6-1.1-3.1,1.2-3.2c-0.2-2.2,1.3-2.8,3.2-1.3
		C182,191.8,183.7,192.3,183.4,194.4z M199,184.6c1.4-0.7,2.5-0.5,2.4,0.4c1.5-0.2,1.9,0.5,0.8,1.6c1.1,0.9,0.6,1.6-1,1.6
		c-0.1,1-1.2,1.3-2.3,0.6c-2.6,0.7-3.8-0.7-2.8-3.2c-1.1-0.4-1.1-1.7,0-0.9C195.2,183.9,198.9,183.9,199,184.6z"/>
</g>
</svg>
